<svg width="529" height="568" viewBox="0 0 529 568" fill="none" xmlns="http://www.w3.org/2000/svg">
  <path d="M367.551 256.287C367.567 254.129 367.128 251.992 366.262 250.007C365.397 248.023 364.124 246.235 362.522 244.755C360.92 243.275 359.024 242.134 356.952 241.405C354.88 240.675 352.677 240.372 350.48 240.514C348.283 240.656 346.14 241.241 344.184 242.231C342.228 243.222 340.502 244.597 339.112 246.271C337.723 247.945 336.7 249.881 336.109 251.96C335.517 254.038 335.369 256.214 335.674 258.351L289.659 317.413C287.696 321.262 286.934 325.593 287.471 329.864C288.007 334.135 289.817 338.156 292.675 341.424L296.284 345.551L312.846 342.304L331.617 326.071L329.408 307.673L352.595 271.959L352.565 271.934C356.624 271.68 360.432 269.922 363.216 267.016C365.999 264.109 367.549 260.273 367.551 256.287Z" fill="#FFB9B9"/>
  <path d="M49.3435 545.034L41.8322 517.691L145.857 476.285L156.943 516.639L49.3435 545.034Z" fill="#FFB8B8"/>
  <path d="M24.2178 559.143L0 470.979L1.13769 470.679C10.4229 468.229 20.3208 469.495 28.6543 474.197C36.9877 478.899 43.0742 486.654 45.575 495.754L45.5756 495.756L60.3668 549.603L24.2178 559.143Z" fill="#2F2E41"/>
  <path d="M192.634 540.665L169.27 524.012L223.689 427.755L258.173 452.334L192.634 540.665Z" fill="#FFB8B8"/>
  <path d="M182.123 567.111L106.786 513.411L107.479 512.477C113.135 504.855 121.648 499.747 131.146 498.277C140.644 496.806 150.349 499.094 158.126 504.636L158.128 504.638L204.141 537.436L182.123 567.111Z" fill="#2F2E41"/>
  <path d="M391.24 406.155L332.446 350.174C327.314 345.288 320.556 342.382 313.413 341.991C306.27 341.6 299.224 343.75 293.569 348.045L182.556 468.925L192.494 484.076L298.491 413.731L370.261 505.72L438.718 472.172L391.24 406.155Z" fill="#2F2E41"/>
  <path d="M365.845 418.059L322.783 414.813L291.598 407.403C289.836 404.709 287.278 402.607 284.264 401.379C281.25 400.15 277.925 399.853 274.734 400.527C271.544 401.202 268.639 402.816 266.41 405.153C264.181 407.49 262.733 410.439 262.261 413.605C261.789 416.77 262.315 420.002 263.768 422.866C265.222 425.731 267.533 428.092 270.393 429.634C273.254 431.175 276.526 431.824 279.773 431.492C283.019 431.16 286.085 429.864 288.559 427.778L288.555 427.8L307.325 435.375L387.928 462.431L397.865 454.855L365.845 418.059Z" fill="#FFB9B9"/>
  <path d="M469.635 534.941L445.343 550.092H416.635L283.034 501.392L87.5998 536.023L82.0792 494.898L260.952 418.061L417.74 468.925L469.635 534.941Z" fill="#2F2E41"/>
  <path d="M417.74 271.959C441.522 271.959 460.802 253.062 460.802 229.752C460.802 206.442 441.522 187.545 417.74 187.545C393.958 187.545 374.678 206.442 374.678 229.752C374.678 253.062 393.958 271.959 417.74 271.959Z" fill="#FFB9B9"/>
  <path d="M529.159 398.266C529.159 423.738 525.064 449.052 517.025 473.275L513.801 482.993L498.343 552.256L481.78 556.585L469.635 541.434L445.344 524.118L427.677 495.98L412.528 471.24L407.803 463.513L391.24 382.346L328.304 347.715L307.325 344.468L311.742 332.564L330.512 307.672L349.283 305.508L354.803 301.179L359.22 303.343L383.567 312.536L462.502 279.848L474.051 281.699L513.801 314.166C523.962 341.086 529.163 369.562 529.159 398.266Z" fill="#E6E6E6"/>
  <path opacity="0.1" d="M517.112 388.84L475.155 415.895L412.528 471.239L407.803 463.513L394.552 398.58H397.865L432.094 336.894L517.112 388.84Z" fill="#C5C5C5"/>
  <path d="M432.095 330.399L397.866 392.085L377.991 413.731L360.325 418.06L407.803 468.924L475.155 409.402L517.112 382.345L432.095 330.399Z" fill="#E6E6E6"/>
  <path d="M384.247 198.37L379.581 200.129C378.873 199.659 378.266 199.057 377.795 198.357C377.324 197.657 376.999 196.873 376.837 196.05C376.675 195.227 376.681 194.38 376.853 193.559C377.025 192.738 377.36 191.958 377.84 191.264C377.865 191.227 377.89 191.191 377.916 191.155L369.294 190.76C374.829 183.535 381.866 177.544 389.939 173.184C398.013 168.824 406.939 166.194 416.127 165.468C425.315 164.742 434.556 165.937 443.238 168.973C451.92 172.01 459.845 176.818 466.489 183.081C466.881 181.756 471.16 184.334 472.907 186.948C473.495 184.792 477.507 195.216 478.926 202.584C479.583 200.131 482.109 204.091 479.896 207.891C481.298 207.691 481.931 211.207 480.846 213.166C482.38 212.46 482.121 216.657 480.458 219.462C482.647 219.272 480.271 263.464 447.421 260.244C445.134 249.944 445.778 250.584 443.085 237.34C441.832 236.036 440.459 234.849 439.089 233.663L431.676 227.25C423.058 219.793 415.217 210.59 403.735 207.803C395.845 205.888 390.855 205.455 395.156 196.74C391.271 198.329 387.642 200.692 383.723 202.168C383.775 200.951 384.323 199.588 384.247 198.37Z" fill="#2F2E41"/>
  <path d="M384.83 97.9851L377.08 102.798L381.78 94.4272C380.452 93.3808 378.804 92.8011 377.1 92.7806H376.98C376.441 92.786 375.902 92.7467 375.37 92.6629L372.75 94.29L373.87 92.3297C372.011 91.6913 370.405 90.4942 369.28 88.909L364.59 91.8494L367.59 86.5664C366.343 84.9851 364.751 83.6965 362.931 82.7944C361.111 81.8923 359.109 81.3996 357.07 81.3521C352.19 81.3521 347.84 84.1945 345.07 88.6345C344.236 89.9674 343.056 91.0591 341.651 91.798C340.245 92.5368 338.664 92.8962 337.07 92.8394H336.81C331.42 92.8394 327.05 98.8379 327.05 106.228C327.05 113.619 331.42 119.607 336.81 119.607C337.996 119.603 339.162 119.318 340.21 118.774C342.046 117.898 344.054 117.424 346.095 117.386C348.136 117.347 350.161 117.743 352.03 118.549C353.604 119.234 355.308 119.589 357.03 119.589C358.753 119.589 360.456 119.234 362.03 118.549C363.884 117.76 365.89 117.372 367.91 117.411C369.931 117.45 371.919 117.915 373.74 118.774C374.779 119.301 375.93 119.58 377.1 119.588C382.49 119.588 386.86 113.599 386.86 106.209C386.898 103.344 386.2 100.516 384.83 97.9851Z" fill="#F2F2F2"/>
  <path opacity="0.03" d="M370.24 117.568C367.422 117.039 364.506 117.35 361.87 118.46C360.295 119.142 358.592 119.496 356.87 119.499C355.128 119.499 353.407 119.135 351.82 118.431C349.95 117.629 347.924 117.235 345.884 117.276C343.843 117.316 341.835 117.791 340 118.666C338.956 119.21 337.792 119.496 336.61 119.499C331.82 119.499 327.83 114.765 327 108.532C327.955 107.844 328.77 106.986 329.4 106.003C332.2 101.563 336.55 98.7202 341.4 98.7202C346.25 98.7202 350.58 101.533 353.4 105.915C354.24 107.247 355.42 108.342 356.822 109.093C358.225 109.844 359.802 110.225 361.4 110.198H361.53C365.3 110.198 368.63 113.197 370.24 117.568Z" fill="black"/>
  <path d="M269.98 33.4426L254.43 43.0872L263.85 26.2973C261.183 24.2113 257.882 23.056 254.47 23.0138H254.22C253.141 23.0345 252.063 22.9558 251 22.7786L245.74 26.0523L247.99 22.0337C244.264 20.7517 241.044 18.3509 238.79 15.1727L229.38 21.0535L235.32 10.4483C229.82 3.96957 222.4 0 214.23 0C204.44 0 195.72 5.70442 190.09 14.6042C188.42 17.2693 186.06 19.4533 183.25 20.934C180.439 22.4146 177.279 23.139 174.09 23.0335H173.57C162.76 23.0335 154 35.0403 154 49.8601C154 64.6799 162.76 76.6867 173.57 76.6867C175.945 76.6793 178.283 76.104 180.38 75.0106C184.06 73.2606 188.085 72.314 192.174 72.2361C196.264 72.1583 200.323 72.9511 204.07 74.5598C207.239 75.9459 210.67 76.6622 214.14 76.6622C217.61 76.6622 221.041 75.9459 224.21 74.5598C227.926 72.9812 231.945 72.2036 235.994 72.2797C240.043 72.3558 244.028 73.2838 247.68 75.0008C249.764 76.067 252.079 76.6283 254.43 76.6377C265.24 76.6377 274 64.6309 274 49.8111C274.078 44.1113 272.696 38.4834 269.98 33.4426Z" fill="#F2F2F2"/>
  <path opacity="0.03" d="M240.73 72.6974C235.083 71.6502 229.246 72.2711 223.96 74.4813C220.794 75.8707 217.364 76.589 213.895 76.589C210.426 76.589 206.996 75.8707 203.83 74.4813C200.084 72.8681 196.025 72.0728 191.934 72.1507C187.844 72.2285 183.819 73.1776 180.14 74.9322C178.038 76.0222 175.698 76.5973 173.32 76.6082C163.72 76.6082 155.73 67.1203 154.07 54.6137C155.991 53.2464 157.621 51.5252 158.87 49.5463C164.5 40.6564 173.22 34.9519 183.01 34.9519C192.8 34.9519 201.43 40.5388 207.05 49.3601C208.727 52.0189 211.077 54.2076 213.872 55.7137C216.666 57.2198 219.811 57.9923 223 57.956H223.25C230.89 57.9364 237.51 63.9349 240.73 72.6974Z" fill="black"/>
</svg>
