<svg width="50" height="48" viewBox="0 0 50 48" fill="none" xmlns="http://www.w3.org/2000/svg">
<g clip-path="url(#clip0_121_133)">
<path d="M39.0857 9.74829C41.3574 12.095 43.0131 14.9735 43.9036 18.1245H50V28.9083H43.9036C43.0141 32.0618 41.3584 34.9429 39.0857 37.2917L42.1393 42.6099L32.8607 48L29.8143 42.6818C26.6554 43.4834 23.3482 43.4834 20.1893 42.6818L17.1393 48L7.86071 42.6099L10.9143 37.2917C8.64161 34.9429 6.98586 32.0618 6.09643 28.9083H0V18.1281H6.09643C6.98586 14.9746 8.64161 12.0935 10.9143 9.7447L7.85714 4.43007L17.1321 -0.960022H17.1429L20.1929 4.35102C23.3517 3.5494 26.659 3.5494 29.8179 4.35102L32.8571 -0.960022H32.8643L42.1429 4.43007L39.0893 9.74829H39.0857ZM35.7143 23.5182C35.7143 20.6591 34.5855 17.9171 32.5761 15.8954C30.5668 13.8738 27.8416 12.738 25 12.738C22.1584 12.738 19.4332 13.8738 17.4239 15.8954C15.4145 17.9171 14.2857 20.6591 14.2857 23.5182C14.2857 26.3773 15.4145 29.1192 17.4239 31.1409C19.4332 33.1626 22.1584 34.2984 25 34.2984C27.8416 34.2984 30.5668 33.1626 32.5761 31.1409C34.5855 29.1192 35.7143 26.3773 35.7143 23.5182Z" fill="#F2F2F2"/>
</g>
<defs>
<clipPath id="clip0_121_133">
<rect width="50" height="48" fill="white"/>
</clipPath>
</defs>
</svg>
