<svg width="173" height="165" viewBox="0 0 173 165" fill="none" xmlns="http://www.w3.org/2000/svg">
<path d="M129.145 41.0438C136.022 47.7785 141.035 56.0394 143.731 65.0822H162.188V96.03H143.731C141.038 105.08 136.025 113.348 129.145 120.089L138.389 135.352L110.298 150.82L101.075 135.558C91.5118 137.858 81.499 137.858 71.9356 135.558L62.7017 150.82L34.6108 135.352L43.8555 120.089C36.975 113.348 31.9622 105.08 29.2694 96.03H10.8125V65.0925H29.2694C31.9622 56.0424 36.975 47.7741 43.8555 41.0334L34.6 25.7812L62.6801 10.3125H62.7125L71.9464 25.5544C81.5099 23.2539 91.5226 23.2539 101.086 25.5544L110.287 10.3125H110.309L138.4 25.7812L129.155 41.0438H129.145ZM118.938 80.5612C118.938 72.3561 115.52 64.487 109.437 58.6851C103.354 52.8832 95.103 49.6237 86.5 49.6237C77.897 49.6237 69.6464 52.8832 63.5632 58.6851C57.48 64.487 54.0625 72.3561 54.0625 80.5612C54.0625 88.7664 57.48 96.6355 63.5632 102.437C69.6464 108.239 77.897 111.499 86.5 111.499C95.103 111.499 103.354 108.239 109.437 102.437C115.52 96.6355 118.938 88.7664 118.938 80.5612Z" fill="#F2F2F2"/>
</svg>
