<svg width="1688" height="743" viewBox="0 0 1688 743" fill="none" xmlns="http://www.w3.org/2000/svg">
<path d="M1644.14 41.0438C1651.02 47.7785 1656.03 56.0394 1658.73 65.0822H1677.19V96.03H1658.73C1656.04 105.08 1651.03 113.348 1644.14 120.089L1653.39 135.352L1625.3 150.82L1616.08 135.558C1606.51 137.858 1596.5 137.858 1586.94 135.558L1577.7 150.82L1549.61 135.352L1558.86 120.089C1551.97 113.348 1546.96 105.08 1544.27 96.03H1525.81V65.0925H1544.27C1546.96 56.0424 1551.97 47.7741 1558.86 41.0334L1549.6 25.7812L1577.68 10.3125H1577.71L1586.95 25.5544C1596.51 23.2539 1606.52 23.2539 1616.09 25.5544L1625.29 10.3125H1625.31L1653.4 25.7812L1644.16 41.0438H1644.14ZM1633.94 80.5612C1633.94 72.3561 1630.52 64.487 1624.44 58.6851C1618.35 52.8832 1610.1 49.6237 1601.5 49.6237C1592.9 49.6237 1584.65 52.8832 1578.56 58.6851C1572.48 64.487 1569.06 72.3561 1569.06 80.5612C1569.06 88.7664 1572.48 96.6355 1578.56 102.437C1584.65 108.239 1592.9 111.499 1601.5 111.499C1610.1 111.499 1618.35 108.239 1624.44 102.437C1630.52 96.6355 1633.94 88.7664 1633.94 80.5612V80.5612Z" fill="#F2F2F2"/>
<g clip-path="url(#clip0_269_2)">
<path d="M1398.09 269.748C1400.36 272.095 1402.01 274.974 1402.9 278.124H1409V288.908H1402.9C1402.01 292.062 1400.36 294.943 1398.09 297.292L1401.14 302.61L1391.86 308L1388.81 302.682C1385.66 303.483 1382.35 303.483 1379.19 302.682L1376.14 308L1366.86 302.61L1369.91 297.292C1367.64 294.943 1365.99 292.062 1365.1 288.908H1359V278.128H1365.1C1365.99 274.975 1367.64 272.093 1369.91 269.745L1366.86 264.43L1376.13 259.04H1376.14L1379.19 264.351C1382.35 263.549 1385.66 263.549 1388.82 264.351L1391.86 259.04H1391.86L1401.14 264.43L1398.09 269.748H1398.09ZM1394.71 283.518C1394.71 280.659 1393.59 277.917 1391.58 275.895C1389.57 273.874 1386.84 272.738 1384 272.738C1381.16 272.738 1378.43 273.874 1376.42 275.895C1374.41 277.917 1373.29 280.659 1373.29 283.518C1373.29 286.377 1374.41 289.119 1376.42 291.141C1378.43 293.163 1381.16 294.298 1384 294.298C1386.84 294.298 1389.57 293.163 1391.58 291.141C1393.59 289.119 1394.71 286.377 1394.71 283.518V283.518Z" fill="#F2F2F2"/>
</g>
<path d="M912.129 78.4772C916.343 82.6235 919.414 87.7094 921.066 93.2766H932.375V112.33H921.066C919.416 117.902 916.345 122.992 912.129 127.142L917.793 136.538L900.582 146.062L894.93 136.665C889.071 138.082 882.936 138.082 877.076 136.665L871.418 146.062L854.207 136.538L859.871 127.142C855.655 122.992 852.584 117.902 850.934 112.33H839.625V93.283H850.934C852.584 87.7112 855.655 82.6208 859.871 78.4709L854.2 69.0807L871.405 59.5573H871.425L877.083 68.9411C882.942 67.5248 889.077 67.5248 894.937 68.9411L900.575 59.5573H900.588L917.8 69.0807L912.136 78.4772H912.129ZM905.875 102.806C905.875 97.7549 903.781 92.9102 900.054 89.3382C896.326 85.7663 891.271 83.7595 886 83.7595C880.729 83.7595 875.674 85.7663 871.946 89.3382C868.219 92.9102 866.125 97.7549 866.125 102.806C866.125 107.858 868.219 112.703 871.946 116.275C875.674 119.847 880.729 121.853 886 121.853C891.271 121.853 896.326 119.847 900.054 116.275C903.781 112.703 905.875 107.858 905.875 102.806V102.806Z" fill="#F2F2F2"/>
<path d="M761.706 303.718C765.045 306.953 767.479 310.922 768.788 315.266H777.75V330.134H768.788C767.481 334.482 765.047 338.454 761.706 341.692L766.195 349.024L752.555 356.456L748.077 349.123C743.433 350.228 738.572 350.228 733.928 349.123L729.445 356.456L715.805 349.024L720.294 341.692C716.953 338.454 714.519 334.482 713.212 330.134H704.25V315.271H713.212C714.519 310.923 716.953 306.951 720.294 303.713L715.8 296.386L729.434 288.954H729.45L733.933 296.277C738.577 295.171 743.439 295.171 748.082 296.277L752.55 288.954H752.56L766.2 296.386L761.711 303.718H761.706ZM756.75 322.702C756.75 318.761 755.091 314.98 752.137 312.193C749.183 309.406 745.177 307.84 741 307.84C736.823 307.84 732.817 309.406 729.863 312.193C726.909 314.98 725.25 318.761 725.25 322.702C725.25 326.644 726.909 330.425 729.863 333.212C732.817 335.999 736.823 337.565 741 337.565C745.177 337.565 749.183 335.999 752.137 333.212C755.091 330.425 756.75 326.644 756.75 322.702V322.702Z" fill="#F2F2F2"/>
<path d="M1236.49 269.819L1226.26 279.581C1224.91 280.862 1223.08 281.58 1221.18 281.58C1219.27 281.58 1217.44 280.862 1216.09 279.581L1130.46 198.044C1128.11 198.691 1125.69 199.038 1123.25 199.075C1118.66 199.072 1114.14 198.024 1110.06 196.018C1105.98 194.012 1102.46 191.107 1099.8 187.543C1097.13 183.979 1095.4 179.86 1094.74 175.528C1094.08 171.197 1094.51 166.777 1096 162.638L1114.31 180.1L1118.13 176.456L1128.37 166.694L1132.19 163.05L1113.88 145.588C1118.22 144.165 1122.85 143.751 1127.4 144.38C1131.94 145.01 1136.26 146.664 1139.99 149.206C1143.73 151.747 1146.78 155.103 1148.88 158.994C1150.98 162.884 1152.08 167.198 1152.08 171.575C1152.04 173.902 1151.68 176.214 1151 178.45L1236.49 260.125C1237.84 261.413 1238.59 263.156 1238.59 264.972C1238.59 266.788 1237.84 268.531 1236.49 269.819V269.819ZM1096.51 260.125C1095.16 261.413 1094.41 263.156 1094.41 264.972C1094.41 266.788 1095.16 268.531 1096.51 269.819L1106.74 279.581C1108.09 280.862 1109.92 281.58 1111.82 281.58C1113.73 281.58 1115.56 280.862 1116.91 279.581L1156.34 242.044L1135.94 222.588L1096.51 260.125ZM1224.17 144.075L1195.33 157.825V171.575L1179.69 186.494L1194.11 200.244L1209.75 185.325H1224.17L1238.58 157.825L1224.17 144.075Z" fill="#F2F2F2"/>
<path d="M310.229 735.29L307.271 738.13C306.88 738.502 306.352 738.711 305.802 738.711C305.252 738.711 304.724 738.502 304.333 738.13L279.583 714.41C278.906 714.598 278.205 714.699 277.5 714.71C276.174 714.709 274.866 714.404 273.687 713.82C272.508 713.237 271.492 712.392 270.721 711.355C269.951 710.318 269.45 709.12 269.259 707.86C269.068 706.6 269.194 705.314 269.625 704.11L274.917 709.19L276.021 708.13L278.979 705.29L280.083 704.23L274.792 699.15C276.046 698.736 277.385 698.615 278.698 698.799C280.011 698.982 281.259 699.463 282.339 700.202C283.419 700.942 284.299 701.918 284.907 703.05C285.515 704.182 285.832 705.436 285.833 706.71C285.822 707.387 285.717 708.059 285.521 708.71L310.229 732.47C310.617 732.844 310.835 733.351 310.835 733.88C310.835 734.408 310.617 734.915 310.229 735.29V735.29ZM269.771 732.47C269.383 732.844 269.165 733.351 269.165 733.88C269.165 734.408 269.383 734.915 269.771 735.29L272.729 738.13C273.119 738.502 273.648 738.711 274.198 738.711C274.748 738.711 275.276 738.502 275.667 738.13L287.062 727.21L281.167 721.55L269.771 732.47ZM306.667 698.71L298.333 702.71V706.71L293.812 711.05L297.979 715.05L302.5 710.71H306.667L310.833 702.71L306.667 698.71Z" fill="#F2F2F2"/>
<path d="M189.406 410.25H361.594V444.688H189.406V410.25Z" fill="#F2F2F2"/>
<path d="M223.844 479.125H327.156V513.562H223.844V479.125Z" fill="#F2F2F2"/>
<path d="M275.5 31.4375C229.833 31.4375 186.036 49.5786 153.745 81.8701C121.453 114.161 103.312 157.958 103.312 203.625C102.148 228.65 106.942 253.593 117.299 276.403C127.657 299.214 143.282 319.239 162.889 334.832C180.108 350.845 189.406 359.971 189.406 375.812H223.844C223.844 344.13 204.731 326.395 186.135 309.348C170.041 297.024 157.215 280.942 148.78 262.51C140.345 244.079 136.557 223.86 137.75 203.625C137.75 167.091 152.263 132.054 178.096 106.221C203.929 80.3879 238.966 65.875 275.5 65.875C312.033 65.875 347.071 80.3879 372.904 106.221C398.737 132.054 413.25 167.091 413.25 203.625C414.423 223.875 410.609 244.103 402.143 262.536C393.677 280.969 380.818 297.043 364.693 309.348C346.269 326.567 327.156 343.786 327.156 375.812H361.594C361.594 359.971 370.72 350.845 388.11 334.66C407.704 319.094 423.322 299.098 433.68 276.317C444.037 253.537 448.838 228.623 447.687 203.625C447.687 181.013 443.234 158.622 434.58 137.732C425.927 116.841 413.244 97.8591 397.255 81.8701C381.266 65.881 362.284 53.1977 341.393 44.5445C320.502 35.8913 298.112 31.4375 275.5 31.4375V31.4375Z" fill="#F2F2F2"/>
<defs>
<clipPath id="clip0_269_2">
<rect width="50" height="48" fill="white" transform="translate(1359 260)"/>
</clipPath>
</defs>
</svg>
