<svg width="551" height="548" viewBox="0 0 551 548" fill="none" xmlns="http://www.w3.org/2000/svg">
<path d="M189.406 410.25H361.594V444.688H189.406V410.25Z" fill="#F2F2F2"/>
<path d="M223.844 479.125H327.156V513.562H223.844V479.125Z" fill="#F2F2F2"/>
<path d="M275.5 31.4375C229.833 31.4375 186.036 49.5786 153.745 81.8701C121.453 114.161 103.312 157.958 103.312 203.625C102.148 228.65 106.942 253.593 117.299 276.403C127.657 299.214 143.282 319.239 162.889 334.832C180.108 350.845 189.406 359.971 189.406 375.812H223.844C223.844 344.13 204.731 326.395 186.135 309.348C170.041 297.024 157.215 280.942 148.78 262.51C140.345 244.079 136.557 223.86 137.75 203.625C137.75 167.091 152.263 132.054 178.096 106.221C203.929 80.3879 238.966 65.875 275.5 65.875C312.033 65.875 347.071 80.3879 372.904 106.221C398.737 132.054 413.25 167.091 413.25 203.625C414.423 223.875 410.609 244.103 402.143 262.536C393.677 280.969 380.818 297.043 364.693 309.348C346.269 326.567 327.156 343.786 327.156 375.812H361.594C361.594 359.971 370.72 350.845 388.11 334.66C407.704 319.094 423.322 299.098 433.68 276.317C444.037 253.537 448.838 228.623 447.687 203.625C447.687 181.013 443.234 158.622 434.58 137.732C425.927 116.841 413.244 97.8591 397.255 81.8701C381.266 65.881 362.284 53.1977 341.393 44.5445C320.502 35.8913 298.112 31.4375 275.5 31.4375Z" fill="#F2F2F2"/>
</svg>
