<svg width="50" height="49" viewBox="0 0 50 49" fill="none" xmlns="http://www.w3.org/2000/svg">
<path d="M45.2292 41.2897L42.2708 44.1297C41.8805 44.5022 41.3525 44.7113 40.8021 44.7113C40.2517 44.7113 39.7237 44.5022 39.3333 44.1297L14.5833 20.4097C13.9059 20.5981 13.2052 20.699 12.5 20.7097C11.1735 20.7088 9.86648 20.4039 8.68747 19.8204C7.50847 19.237 6.49159 18.3917 5.72137 17.355C4.95116 16.3182 4.44987 15.12 4.25917 13.8598C4.06848 12.5996 4.1939 11.314 4.62499 10.1097L9.91666 15.1897L11.0208 14.1297L13.9792 11.2897L15.0833 10.2297L9.79166 5.14972C11.0461 4.73586 12.3853 4.61546 13.698 4.79853C15.0107 4.98159 16.2589 5.46284 17.3388 6.20224C18.4187 6.94165 19.2992 7.91785 19.907 9.0497C20.5148 10.1815 20.8324 11.4363 20.8333 12.7097C20.8222 13.3868 20.7171 14.0593 20.5208 14.7097L45.2292 38.4697C45.6172 38.8444 45.835 39.3513 45.835 39.8797C45.835 40.4081 45.6172 40.915 45.2292 41.2897V41.2897ZM4.77083 38.4697C4.3828 38.8444 4.16501 39.3513 4.16501 39.8797C4.16501 40.4081 4.3828 40.915 4.77083 41.2897L7.72916 44.1297C8.1195 44.5022 8.64752 44.7113 9.19791 44.7113C9.7483 44.7113 10.2763 44.5022 10.6667 44.1297L22.0625 33.2097L16.1667 27.5497L4.77083 38.4697ZM41.6667 4.70972L33.3333 8.70972V12.7097L28.8125 17.0497L32.9792 21.0497L37.5 16.7097H41.6667L45.8333 8.70972L41.6667 4.70972Z" fill="#F2F2F2"/>
</svg>
