<svg width="1449" height="1596" viewBox="0 0 1449 1596" fill="none" xmlns="http://www.w3.org/2000/svg">
  <path fill-rule="evenodd" clip-rule="evenodd" d="M684.522 0.807172C818.11 17.0386 798.576 263.105 918.968 323.228C1036.66 382.003 1224.35 211.336 1308.53 312.432C1391.63 412.24 1196.78 559.977 1222.15 687.351C1246.44 809.328 1421.13 860.364 1442.06 982.962C1462.52 1102.84 1433.57 1260.19 1331.13 1325.71C1216.02 1399.33 1062.99 1305.11 926.568 1312.67C843.341 1317.28 760.804 1327.93 684.522 1361.53C550.626 1420.51 441.319 1652.02 312.139 1583.32C179.673 1512.88 333.6 1276.63 269.658 1140.9C225.387 1046.93 64.2452 1055.56 19.3662 961.878C-24.315 870.695 16.1227 761.183 40.7805 663.13C65.1213 566.338 93.5596 465.964 162.278 393.584C229.652 322.619 342.731 321.532 420.935 262.715C521.181 187.321 560.005 -14.3222 684.522 0.807172Z" fill="#F2F2F2"/>
</svg>
